<?xml version="1.0" encoding="UTF-8" standalone="no"?>
<!-- Created with Inkscape (http://www.inkscape.org/) -->

<svg
   width="450mm"
   height="300mm"
   viewBox="0 0 450 300"
   version="1.1"
   id="svg1"
   xml:space="preserve"
   inkscape:version="1.3 (0e150ed6c4, 2023-07-21)"
   sodipodi:docname="case_laser_cut.svg"
   xmlns:inkscape="http://www.inkscape.org/namespaces/inkscape"
   xmlns:sodipodi="http://sodipodi.sourceforge.net/DTD/sodipodi-0.dtd"
   xmlns="http://www.w3.org/2000/svg"
   xmlns:svg="http://www.w3.org/2000/svg"><sodipodi:namedview
     id="namedview1"
     pagecolor="#ffffff"
     bordercolor="#000000"
     borderopacity="0.25"
     inkscape:showpageshadow="2"
     inkscape:pageopacity="0.0"
     inkscape:pagecheckerboard="0"
     inkscape:deskcolor="#d1d1d1"
     inkscape:document-units="mm"
     showgrid="false"
     showguides="false"
     inkscape:zoom="2.8284271"
     inkscape:cx="129.40054"
     inkscape:cy="343.83067"
     inkscape:window-width="2560"
     inkscape:window-height="1417"
     inkscape:window-x="-8"
     inkscape:window-y="-8"
     inkscape:window-maximized="1"
     inkscape:current-layer="layer3" /><defs
     id="defs1" /><g
     inkscape:groupmode="layer"
     id="layer3"
     inkscape:label="Layer 2"
     style="display:inline"><path
       id="path6-2-8-2"
       style="fill:none;stroke:#ff0000;stroke-width:0.001"
       inkscape:label="hole-RD-B(top)"
       d="M 150.64949,117.05 A 1.5994841,1.5994841 0 0 1 149.05,118.64949 1.5994841,1.5994841 0 0 1 147.45052,117.05 1.5994841,1.5994841 0 0 1 149.05,115.45052 1.5994841,1.5994841 0 0 1 150.64949,117.05 Z" /><path
       id="path6-2-8"
       style="fill:none;stroke:#ff0000;stroke-width:0.001"
       inkscape:label="hole-LD-B(top)"
       d="m 43.649483,117.05 a 1.5994841,1.5994841 0 0 1 -1.599484,1.59949 1.5994841,1.5994841 0 0 1 -1.599484,-1.59949 1.5994841,1.5994841 0 0 1 1.599484,-1.59948 1.5994841,1.5994841 0 0 1 1.599484,1.59948 z" /><path
       id="path6-2"
       style="fill:none;stroke:#ff0000;stroke-width:0.001"
       inkscape:label="hole-RU-B(top)"
       d="m 150.64949,51.049999 a 1.5994841,1.5994841 0 0 1 -1.59949,1.599484 1.5994841,1.5994841 0 0 1 -1.59948,-1.599484 1.5994841,1.5994841 0 0 1 1.59948,-1.599484 1.5994841,1.5994841 0 0 1 1.59949,1.599484 z" /><path
       id="path6"
       style="fill:none;stroke:#ff0000;stroke-width:0.001"
       inkscape:label="hole-LU-B(top)"
       d="M 43.599468,50.999984 A 1.5994841,1.5994841 0 0 1 41.999984,52.599468 1.5994841,1.5994841 0 0 1 40.4005,50.999984 1.5994841,1.5994841 0 0 1 41.999984,49.4005 1.5994841,1.5994841 0 0 1 43.599468,50.999984 Z" /><path
       id="path6-9-9"
       style="fill:none;stroke:#ff0000;stroke-width:0.001"
       inkscape:label="hole-D-T(top)"
       d="m 178.10948,94.900002 a 1.5994841,1.5994841 0 0 1 -1.59949,1.599484 1.5994841,1.5994841 0 0 1 -1.59948,-1.599484 1.5994841,1.5994841 0 0 1 1.59948,-1.599485 1.5994841,1.5994841 0 0 1 1.59949,1.599485 z" /><path
       id="path6-9-0"
       style="fill:none;stroke:#ff0000;stroke-width:0.001"
       inkscape:label="hole-RU-T(top)"
       d="M 195.09948,22.9 A 1.5994841,1.5994841 0 0 1 193.5,24.499484 1.5994841,1.5994841 0 0 1 191.90052,22.9 1.5994841,1.5994841 0 0 1 193.5,21.300516 1.5994841,1.5994841 0 0 1 195.09948,22.9 Z" /><path
       id="path6-9"
       style="display:inline;fill:none;stroke:#ff0000;stroke-width:0.001"
       inkscape:label="hole-LU-T(top)"
       d="M 56.099484,22.9 A 1.5994841,1.5994841 0 0 1 54.5,24.499484 1.5994841,1.5994841 0 0 1 52.900516,22.9 1.5994841,1.5994841 0 0 1 54.5,21.300516 1.5994841,1.5994841 0 0 1 56.099484,22.9 Z" /><path
       id="path1"
       style="display:inline;fill:none;stroke:#ff0000;stroke-width:0.00164861"
       inkscape:label="sw-reset(top)"
       d="M 58.699176,51 A 1.4991757,1.4991757 0 0 1 57.200001,52.499176 1.4991757,1.4991757 0 0 1 55.700825,51 1.4991757,1.4991757 0 0 1 57.200001,49.500824 1.4991757,1.4991757 0 0 1 58.699176,51 Z" /><path
       id="path1-7"
       style="display:inline;fill:none;stroke:#ff0000;stroke-width:0.00164861"
       inkscape:label="sw-sel(top)"
       d="M 38.499176,64.400002 A 1.4991757,1.4991757 0 0 1 37,65.899177 1.4991757,1.4991757 0 0 1 35.500824,64.400002 1.4991757,1.4991757 0 0 1 37,62.900826 a 1.4991757,1.4991757 0 0 1 1.499176,1.499176 z" /><path
       id="path1-7-2"
       style="display:inline;fill:none;stroke:#ff0000;stroke-width:0.00164861"
       inkscape:label="sw-minus(top)"
       d="M 38.499176,77.199997 A 1.4991757,1.4991757 0 0 1 37,78.699173 1.4991757,1.4991757 0 0 1 35.500824,77.199997 1.4991757,1.4991757 0 0 1 37,75.700821 a 1.4991757,1.4991757 0 0 1 1.499176,1.499176 z" /><path
       id="path1-7-2-0"
       style="display:inline;fill:none;stroke:#ff0000;stroke-width:0.00164861"
       inkscape:label="sw-plus(top)"
       d="M 38.499176,90 A 1.4991757,1.4991757 0 0 1 37,91.499176 1.4991757,1.4991757 0 0 1 35.500824,90 1.4991757,1.4991757 0 0 1 37,88.500824 1.4991757,1.4991757 0 0 1 38.499176,90 Z" /><path
       id="path1-7-2-0-3"
       style="display:inline;fill:none;stroke:#ff0000;stroke-width:0.00164861"
       inkscape:label="sw-ok(top)"
       d="M 38.499176,102.8 A 1.4991757,1.4991757 0 0 1 37,104.29918 1.4991757,1.4991757 0 0 1 35.500824,102.8 1.4991757,1.4991757 0 0 1 37,101.30083 1.4991757,1.4991757 0 0 1 38.499176,102.8 Z" /><path
       id="rect6-8-5"
       style="fill:none;stroke:#ff0000;stroke-width:0.001"
       inkscape:label="sw-14(top)"
       d="m 135.0005,95.550499 h 11.299 v 7.299001 h -11.299 z" /><path
       id="rect6-8"
       style="fill:none;stroke:#ff0000;stroke-width:0.001"
       inkscape:label="sw-13(top)"
       d="m 135.0005,77.750504 h 11.299 v 7.299 h -11.299 z" /><path
       id="rect6"
       style="fill:none;stroke:#ff0000;stroke-width:0.001"
       inkscape:label="sw-12(top)"
       d="m 135.0005,59.9505 h 11.299 v 7.299001 h -11.299 z" /><path
       id="rect4-5-5-7-1-1-9-2-2-5"
       style="fill:none;stroke:#ff0000;stroke-width:0.001"
       inkscape:label="sw-11(top)"
       d="m 180.5105,76.760498 h 13.999 v 13.999 h -13.999 z" /><path
       id="rect4-5-5-7-1-1-9-2"
       style="fill:none;stroke:#ff0000;stroke-width:0.001"
       inkscape:label="sw-10(top)"
       d="m 158.4705,76.760498 h 13.999 v 13.999 h -13.999 z" /><path
       id="rect4-5-5-7-1-1-9-2-2"
       style="fill:none;stroke:#ff0000;stroke-width:0.001"
       inkscape:label="sw-9(top)"
       d="m 180.5105,57.810501 h 13.999 v 13.999 h -13.999 z" /><path
       id="rect4-5-5-7-1-1-9"
       style="fill:none;stroke:#ff0000;stroke-width:0.001"
       inkscape:label="sw-8(top)"
       d="m 158.4705,57.810501 h 13.999 v 13.999 h -13.999 z" /><path
       id="path5"
       style="fill:none;stroke:#ff0000;stroke-width:0.001"
       inkscape:label="sw-7(top)"
       d="m 196.50949,45.66 a 8.9995003,8.9995003 0 0 1 -8.9995,8.9995 8.9995003,8.9995003 0 0 1 -8.9995,-8.9995 8.9995003,8.9995003 0 0 1 8.9995,-8.9995 8.9995003,8.9995003 0 0 1 8.9995,8.9995 z" /><path
       id="rect4-5-5-7-1-1"
       style="fill:none;stroke:#ff0000;stroke-width:0.001"
       inkscape:label="sw-6(top)"
       d="m 158.4705,38.6605 h 13.999 v 13.998999 h -13.999 z" /><path
       id="rect4-5-5-7-1"
       style="fill:none;stroke:#ff0000;stroke-width:0.001"
       inkscape:label="sw-5(top)"
       d="m 142.1705,24.890499 h 13.999 v 13.999 h -13.999 z" /><path
       id="rect4-5-5-7"
       style="fill:none;stroke:#ff0000;stroke-width:0.001"
       inkscape:label="sw-4(top)"
       d="m 121.7905,24.890499 h 13.999 v 13.999 h -13.999 z" /><path
       id="rect4-5-5"
       style="fill:none;stroke:#ff0000;stroke-width:0.001"
       inkscape:label="sw-3(top)"
       d="m 101.5305,24.890499 h 13.999 v 13.999 h -13.999 z" /><path
       id="rect4-5"
       style="fill:none;stroke:#ff0000;stroke-width:0.001"
       inkscape:label="sw-2(top)"
       d="m 81.150497,24.890499 h 13.999 v 13.999 h -13.999 z" /><path
       id="rect4"
       style="fill:none;stroke:#ff0000;stroke-width:0.001"
       inkscape:label="sw-1(top)"
       d="m 60.890499,24.890499 h 13.999 v 13.999 h -13.999 z" /><path
       id="path33-5-6"
       style="display:inline;fill:none;stroke:#ff0000;stroke-width:0.0009996"
       inkscape:label="hole-RD-T(bottom)"
       d="M 382.2495,117 A 1.2495002,1.2495003 0 0 1 381,118.2495 1.2495002,1.2495003 0 0 1 379.7505,117 1.2495002,1.2495003 0 0 1 381,115.7505 1.2495002,1.2495003 0 0 1 382.2495,117 Z" /><path
       id="path33-5-9"
       style="display:inline;fill:none;stroke:#ff0000;stroke-width:0.0009996"
       inkscape:label="hole-LD-T(bottom)"
       d="M 275.2495,117 A 1.2495002,1.2495003 0 0 1 274,118.2495 1.2495002,1.2495003 0 0 1 272.7505,117 1.2495002,1.2495003 0 0 1 274,115.7505 1.2495002,1.2495003 0 0 1 275.2495,117 Z" /><path
       id="path33-5"
       style="display:inline;fill:none;stroke:#ff0000;stroke-width:0.0009996"
       inkscape:label="hole-RU-T(bottom)"
       d="M 382.2495,51 A 1.2495002,1.2495003 0 0 1 381,52.2495 1.2495002,1.2495003 0 0 1 379.7505,51 1.2495002,1.2495003 0 0 1 381,49.7505 1.2495002,1.2495003 0 0 1 382.2495,51 Z" /><path
       id="path33"
       style="display:inline;fill:none;stroke:#ff0000;stroke-width:0.0009996"
       inkscape:label="hole-LU-T(bottom)"
       d="M 275.2495,51 A 1.2495002,1.2495003 0 0 1 274,52.2495 1.2495002,1.2495003 0 0 1 272.7505,51 1.2495002,1.2495003 0 0 1 274,49.7505 1.2495002,1.2495003 0 0 1 275.2495,51 Z" /><path
       id="path34"
       style="display:inline;fill:none;stroke:#ff0000;stroke-width:0.000999941"
       inkscape:label="hole(front)"
       d="M 142.0495,158 A 8.4995003,8.4995003 0 0 1 133.55,166.4995 8.4995003,8.4995003 0 0 1 125.0505,158 8.4995003,8.4995003 0 0 1 133.55,149.5005 8.4995003,8.4995003 0 0 1 142.0495,158 Z" /><path
       id="path35-7"
       style="display:inline;fill:none;stroke:#ff0000;stroke-width:0.000999688"
       inkscape:label="hole-R(rear)"
       d="m 56.415502,198 a 1.5995002,1.5995002 0 0 1 -1.5995,1.5995 1.5995002,1.5995002 0 0 1 -1.5995,-1.5995 1.5995002,1.5995002 0 0 1 1.5995,-1.5995 1.5995002,1.5995002 0 0 1 1.5995,1.5995 z" /><path
       id="path35"
       style="display:inline;fill:none;stroke:#ff0000;stroke-width:0.000999688"
       inkscape:label="hole-L(rear)"
       d="M 31.4155,198 A 1.5995002,1.5995002 0 0 1 29.816,199.5995 1.5995002,1.5995002 0 0 1 28.2165,198 1.5995002,1.5995002 0 0 1 29.816,196.4005 1.5995002,1.5995002 0 0 1 31.4155,198 Z" /><path
       id="rect35"
       style="display:inline;fill:none;stroke:#ff0000;stroke-width:0.000999875"
       inkscape:label="connect(rear)"
       d="m 36.316502,198.0005 h 11.998999 v 5.999 H 36.316502 Z" /></g><g
     inkscape:groupmode="layer"
     id="layer4"
     inkscape:label="Layer 3"><path
       id="rect1"
       style="display:inline;fill:none;stroke:#0000ff;stroke-width:0.00100099"
       inkscape:label="base(top)"
       d="M 9.0009556,9.0004997 H 208.99995 V 128.9995 H 9.0009556 Z" /><path
       id="rect1-8"
       style="display:inline;fill:none;stroke:#0000ff;stroke-width:0.00100099"
       inkscape:label="base(bottom)"
       d="m 241.0005,9.0004997 h 199.999 V 128.9995 h -199.999 z" /><path
       id="rect2"
       style="display:inline;fill:none;stroke:#0000ff;stroke-width:0.00100209"
       inkscape:label="base(front)"
       d="M 9.0005007,134.0005 H 203.99949 v 33.999 H 9.0005007 Z" /><path
       id="rect2-8"
       style="display:inline;fill:none;stroke:#0000ff;stroke-width:0.00100209"
       inkscape:label="base(rear)"
       d="M 9.0005007,174.0005 H 203.99949 v 33.999 H 9.0005007 Z" /><path
       id="rect2-8-4"
       style="display:inline;fill:none;stroke:#0000ff;stroke-width:0.000768188"
       inkscape:label="base(side1)"
       d="M 9.0003834,214.00038 H 123.99961 v 33.87843 H 9.0003834 Z" /><path
       id="rect2-8-4-5"
       style="display:inline;fill:none;stroke:#0000ff;stroke-width:0.000768188"
       inkscape:label="base(side2)"
       d="M 9.0003834,254.00038 H 123.99961 v 33.87843 H 9.0003834 Z" /><path
       id="rect7"
       style="fill:none;stroke:#0000ff;stroke-width:0.00118964;paint-order:normal"
       d="m 142.50039,214.00059 v 17.70022 h -7.4998 v 3.99872 h 7.4998 v 9.29969 h -7.4998 v 8.99997 h 8.8005 v -4.99763 h 2.39727 v 4.99763 h 8.8005 v -8.99997 h -7.49981 v -9.29969 h 7.50032 v -3.99872 h -7.50032 v -17.70022 z"
       inkscape:label="thumb1" /><path
       id="rect7-0"
       style="fill:none;stroke:#0000ff;stroke-width:0.00118964;paint-order:normal"
       d="m 167.50039,214.00059 v 17.70022 h -7.4998 v 3.99872 h 7.4998 v 9.29969 h -7.4998 v 8.99997 h 8.8005 v -4.99763 h 2.39727 v 4.99763 h 8.80051 v -8.99997 h -7.49982 v -9.29969 h 7.50033 v -3.99872 h -7.50033 v -17.70022 z"
       inkscape:label="thumb2" /><path
       id="rect7-0-0"
       style="fill:none;stroke:#0000ff;stroke-width:0.00118964;paint-order:normal"
       d="m 192.50039,214.00059 v 17.70022 h -7.4998 v 3.99872 h 7.4998 v 9.29969 h -7.4998 v 8.99997 h 8.8005 v -4.99763 h 2.39727 v 4.99763 h 8.80052 v -8.99997 h -7.49983 v -9.29969 h 7.50034 v -3.99872 h -7.50034 v -17.70022 z"
       inkscape:label="thumb3" /></g></svg>
